<?xml version="1.0" encoding="UTF-8" standalone="no"?>
<!-- Created with Inkscape (http://www.inkscape.org/) -->

<svg
   xmlns:dc="http://purl.org/dc/elements/1.1/"
   xmlns:cc="http://creativecommons.org/ns#"
   xmlns:rdf="http://www.w3.org/1999/02/22-rdf-syntax-ns#"
   xmlns:svg="http://www.w3.org/2000/svg"
   xmlns="http://www.w3.org/2000/svg"
   xmlns:sodipodi="http://sodipodi.sourceforge.net/DTD/sodipodi-0.dtd"
   xmlns:inkscape="http://www.inkscape.org/namespaces/inkscape"
   id="svg2"
   version="1.1"
   inkscape:version="0.48.4 r9939"
   width="619"
   height="371"
   sodipodi:docname="Capture du 2014-01-28 23:25:12.png">
  <metadata
     id="metadata8">
    <rdf:RDF>
      <cc:Work
         rdf:about="">
        <dc:format>image/svg+xml</dc:format>
        <dc:type
           rdf:resource="http://purl.org/dc/dcmitype/StillImage" />
        <dc:title></dc:title>
      </cc:Work>
    </rdf:RDF>
  </metadata>
  <defs
     id="defs6" />
  <sodipodi:namedview
     pagecolor="#ffffff"
     bordercolor="#666666"
     borderopacity="1"
     objecttolerance="10"
     gridtolerance="10"
     guidetolerance="10"
     inkscape:pageopacity="0"
     inkscape:pageshadow="2"
     inkscape:window-width="1600"
     inkscape:window-height="876"
     id="namedview4"
     showgrid="false"
     inkscape:zoom="1.4073595"
     inkscape:cx="236.39345"
     inkscape:cy="236.9496"
     inkscape:window-x="0"
     inkscape:window-y="24"
     inkscape:window-maximized="1"
     inkscape:current-layer="svg2" />
  <path
     style="fill:#000000"
     d="m 23.605946,359.46309 c -1.746262,-1.74626 -1.901526,-2.75757 -0.961939,-6.26556 0.437957,-1.63513 1.231045,-2.2148 2.736345,-2 1.639105,0.2339 2.187789,1.11536 2.420212,3.88806 0.379314,4.52505 -1.786661,6.78546 -4.194618,4.3775 z M 26.5,355.5 c 0,-1.55833 -0.5625,-3.02083 -1.25,-3.25 -0.848485,-0.28283 -1.25,0.76111 -1.25,3.25 0,2.48889 0.401515,3.53283 1.25,3.25 0.6875,-0.22917 1.25,-1.69167 1.25,-3.25 z m 3.554214,4.06532 c -0.654871,-0.78907 -1.047471,-2.92657 -0.872445,-4.75 0.243762,-2.5395 0.836484,-3.38901 2.532885,-3.63024 2.743681,-0.39014 4.10075,3.72989 2.433701,7.38866 -1.263168,2.77235 -2.389779,3.04521 -4.094141,0.99158 z M 33,355.41667 c 0,-2.42198 -0.405126,-3.44845 -1.25,-3.16714 C 29.400375,353.03186 29.593654,359 31.968615,359 32.535877,359 33,357.3875 33,355.41667 z m 4.25,4.86572 c -2.069193,-0.74335 -1.404975,-2.13568 0.75,-1.57214 1.118188,0.29241 2,0.0307 2,-0.59362 C 40,357.50248 39.1,357 38,357 c -1.565626,0 -2,-0.66667 -2,-3.06955 0,-2.61125 0.335935,-3.02184 2.25,-2.75 1.785233,0.25354 2.312085,1.0602 2.550564,3.90514 0.3095,3.6922 -1.276607,6.01372 -3.550564,5.1968 z m 2.573324,-6.61526 C 40.014697,352.68037 39.504563,352 38.573324,352 37.645689,352 37,352.855 37,354.08333 c 0,2.43705 2.336773,2.09257 2.823324,-0.4162 z M 71.2,359.8 c -2.426372,-2.42637 -1.122676,-8.8 1.8,-8.8 1.941065,0 3,1.89966 3,5.38179 0,2.0775 -1.65045,4.61821 -3,4.61821 -0.33,0 -1.14,-0.54 -1.8,-1.2 z m 2.8,-4.3 c 0,-1.925 -0.45,-3.5 -1,-3.5 -0.55,0 -1,1.575 -1,3.5 0,1.925 0.45,3.5 1,3.5 0.55,0 1,-1.575 1,-3.5 z m 9.851645,3.07374 c -1.667049,-3.65877 -0.30998,-7.7788 2.433701,-7.38866 1.696401,0.24123 2.289123,1.09074 2.532885,3.63024 0.307995,3.2087 -1.117333,6.18468 -2.962115,6.18468 -0.494446,0 -1.396458,-1.09182 -2.004471,-2.42626 z M 87.5,355.5 c 0,-1.55833 -0.5625,-3.02083 -1.25,-3.25 -0.848485,-0.28283 -1.25,0.76111 -1.25,3.25 0,2.48889 0.401515,3.53283 1.25,3.25 0.6875,-0.22917 1.25,-1.69167 1.25,-3.25 z m 31.55421,4.06532 c -0.65487,-0.78907 -1.04747,-2.92657 -0.87244,-4.75 0.2394,-2.49403 0.84543,-3.39053 2.44637,-3.6189 2.61264,-0.3727 3.85992,3.38968 2.39825,7.23418 -1.10377,2.90313 -2.23608,3.22659 -3.97218,1.13472 z M 122,355.41667 c 0,-2.42198 -0.40513,-3.44845 -1.25,-3.16714 C 118.40037,353.03186 118.59365,359 120.96862,359 121.53588,359 122,357.3875 122,355.41667 z m 45.09011,4.63902 c -0.73185,-0.45231 -1.09947,-2.33522 -0.90931,-4.65748 0.2559,-3.12514 0.71583,-3.89821 2.3192,-3.89821 1.62792,0 2.05606,0.7671 2.30131,4.12332 0.30981,4.23973 -1.16769,6.00435 -3.7112,4.43237 z M 170,355.5 c 0,-2.44444 -0.45238,-3.5 -1.5,-3.5 -1.04762,0 -1.5,1.05556 -1.5,3.5 0,2.44444 0.45238,3.5 1.5,3.5 1.04762,0 1.5,-1.05556 1.5,-3.5 z m 44.60595,3.96309 c -2.97552,-2.97552 -1.52068,-8.97375 2.01388,-8.30317 1.34889,0.25592 1.9651,1.36755 2.18073,3.93399 0.37951,4.51688 -1.78859,6.77521 -4.19461,4.36918 z M 217.5,355.5 c 0,-1.55833 -0.5625,-3.02083 -1.25,-3.25 -0.84848,-0.28283 -1.25,0.76111 -1.25,3.25 0,2.48889 0.40152,3.53283 1.25,3.25 0.6875,-0.22917 1.25,-1.69167 1.25,-3.25 z m 10.16667,4.83333 c -1.31101,-1.311 -0.63237,-2.13712 1.33333,-1.62308 1.99462,0.52161 2.81346,-1.08947 1.09388,-2.15223 -0.49837,-0.30801 -0.67088,-1.45956 -0.38337,-2.55902 0.56446,-2.15847 -1.21668,-2.8098 -2.04823,-0.749 -0.29112,0.72147 -0.53777,0.48065 -0.58333,-0.56955 -0.0578,-1.33161 0.52443,-1.73386 2.17105,-1.5 1.85512,0.26347 2.2883,1.01465 2.46824,4.28016 0.23845,4.3273 -1.95681,6.96749 -4.05157,4.87272 z M 262.2,359.8 c -2.42637,-2.42637 -1.12268,-8.8 1.8,-8.8 1.94106,0 3,1.89966 3,5.38179 0,2.0775 -1.65045,4.61821 -3,4.61821 -0.33,0 -1.14,-0.54 -1.8,-1.2 z m 2.8,-4.3 c 0,-1.925 -0.45,-3.5 -1,-3.5 -0.55,0 -1,1.575 -1,3.5 0,1.925 0.45,3.5 1,3.5 0.55,0 1,-1.575 1,-3.5 z m 45.00488,4.00588 c -0.62774,-0.75638 -0.99814,-2.86713 -0.82311,-4.69056 0.40209,-4.18894 4.21315,-5.3623 5.16025,-1.58875 1.22626,4.88581 -1.82606,9.30497 -4.33714,6.27931 z M 313,355.41667 c 0,-2.42198 -0.40513,-3.44845 -1.25,-3.16714 C 309.40037,353.03186 309.59365,359 311.96862,359 312.53588,359 313,357.3875 313,355.41667 z m 10.25,4.85269 c -2.1089,-0.73563 -1.38367,-2.44656 0.75,-1.76936 1.57366,0.49946 2,0.1797 2,-1.5 0,-1.72974 -0.40817,-2.00523 -2.15127,-1.45199 -1.74372,0.55344 -2.02789,0.36126 -1.5,-1.0144 0.3582,-0.93345 0.65127,-2.11038 0.65127,-2.6154 0,-0.50501 1.0125,-0.86601 2.25,-0.80221 1.69317,0.0873 1.81691,0.22918 0.5,0.57333 -2.07935,0.54339 -2.35239,2.31067 -0.35699,2.31067 2.75864,0 2.99395,5.28007 0.27967,6.27537 -0.64497,0.23651 -1.73518,0.2338 -2.42268,-0.006 z m 35,0.013 c -0.74751,-0.26854 -1.25,-2.25247 -1.25,-4.93527 0,-4.08039 0.20354,-4.45731 2.25,-4.16667 1.78523,0.25354 2.31209,1.0602 2.55056,3.90514 0.3095,3.6922 -1.2766,6.01372 -3.55056,5.1968 z m 2.56336,-4.45538 C 360.36062,351.24267 358,350.89836 358,355.41667 c 0,2.58306 0.4364,3.58333 1.56336,3.58333 1.15518,0 1.48154,-0.82844 1.25,-3.17299 z m 10.27675,4.22868 c -0.73185,-0.45231 -1.09947,-2.33522 -0.90931,-4.65748 0.259,-3.163 0.74355,-3.95848 2.5692,-4.21776 1.2375,-0.17575 2.25,0.11962 2.25,0.65638 0,0.53676 -0.9,0.74058 -2,0.45292 -1.1,-0.28766 -2,-0.073 -2,0.47699 0,0.55 0.9,1.23535 2,1.52301 1.32358,0.34612 2,1.36401 2,3.00964 0,2.65992 -1.89935,3.99888 -3.90989,2.7563 z m 2.73321,-2.73458 c -0.42944,-2.22992 -2.20795,-2.27795 -2.63295,-0.0711 -0.2108,1.0946 0.27967,1.75 1.30963,1.75 1.00339,0 1.52034,-0.65585 1.32332,-1.67889 z m 31.02833,1.25263 c -1.66705,-3.65877 -0.30998,-7.7788 2.4337,-7.38866 1.6964,0.24123 2.28912,1.09074 2.53288,3.63024 0.308,3.2087 -1.11733,6.18468 -2.96211,6.18468 -0.49445,0 -1.39646,-1.09182 -2.00447,-2.42626 z m 3.68348,-0.63058 C 409.40642,356.53338 408.22091,352 406.98095,352 406.44143,352 406,353.575 406,355.5 c 0,3.40658 1.21565,4.57813 2.53513,2.44316 z m 44.51908,1.62216 c -0.65487,-0.78907 -1.04747,-2.92657 -0.87244,-4.75 0.24376,-2.5395 0.83648,-3.38901 2.53288,-3.63024 2.74368,-0.39014 4.10075,3.72989 2.4337,7.38866 -1.26316,2.77235 -2.38977,3.04521 -4.09414,0.99158 z M 456,355.5 c 0,-1.925 -0.39752,-3.5 -0.88337,-3.5 -1.15372,0 -2.13164,3.79731 -1.44124,5.59645 C 454.6785,360.21052 456,359.01872 456,355.5 z m 10.15501,4.18677 c -0.62755,-0.75615 -0.83256,-2.89894 -0.48328,-5.05131 0.49802,-3.06892 0.97967,-3.68415 2.69062,-3.43677 1.61481,0.23347 2.12444,1.0893 2.26361,3.80131 0.2591,5.04901 -2.10959,7.53204 -4.47095,4.68677 z M 469,357.5 c 0,-0.825 -0.45,-1.5 -1,-1.5 -0.55,0 -1,0.675 -1,1.5 0,0.825 0.45,1.5 1,1.5 0.55,0 1,-0.675 1,-1.5 z m 0,-4.5 c 0,-0.55 -0.45,-1 -1,-1 -0.55,0 -1,0.45 -1,1 0,0.55 0.45,1 1,1 0.55,0 1,-0.45 1,-1 z m 32.09011,7.05569 c -0.73185,-0.45231 -1.09947,-2.33522 -0.90931,-4.65748 0.25278,-3.087 0.76105,-3.96125 2.4425,-4.20116 1.55419,-0.22175 2.22936,0.31431 2.519,2 0.90781,5.2834 -1.10061,8.68282 -4.05219,6.85864 z M 504,355.41667 c 0,-2.42198 -0.40513,-3.44845 -1.25,-3.16714 C 500.40037,353.03186 500.59365,359 502.96862,359 503.53588,359 504,357.3875 504,355.41667 z m 10.01596,4.10256 c -0.9056,-1.09118 -0.72136,-1.25495 0.92689,-0.82392 1.13143,0.29587 2.05715,0.0879 2.05715,-0.46205 0,-0.55 -0.9356,-1.24466 -2.07911,-1.5437 -2.88991,-0.75573 -2.26791,-5.06912 0.79376,-5.50448 1.65706,-0.23563 2.37218,0.31269 2.8403,2.17783 1.21098,4.82492 -2.01389,9.19888 -4.53899,6.15632 z M 517,354 c 0,-1.1 -0.42344,-2 -0.94098,-2 -1.34235,0 -2.28822,1.82013 -1.55902,3 1.04512,1.69104 2.5,1.10908 2.5,-1 z m 32.24122,6.14908 c -1.23232,-0.76161 -1.67358,-2.95856 -1.39966,-6.96863 0.12289,-1.79908 0.66331,-2.24785 2.40844,-2 1.78523,0.25354 2.31209,1.0602 2.55056,3.90514 0.31721,3.78418 -1.48378,6.34626 -3.55934,5.06349 z m 2.57214,-4.32207 C 551.36062,351.24267 549,350.89836 549,355.41667 c 0,2.58306 0.4364,3.58333 1.56336,3.58333 1.15518,0 1.48154,-0.82844 1.25,-3.17299 z m 10.27675,4.22868 c -0.73185,-0.45231 -1.09947,-2.33522 -0.90931,-4.65748 0.259,-3.163 0.74355,-3.95848 2.5692,-4.21776 2.04494,-0.29043 2.25,0.0872 2.25,4.14301 0,4.52218 -1.43653,6.26085 -3.90989,4.73223 z M 565,355.35765 c 0,-2.37234 -0.40858,-3.38976 -1.25,-3.11266 -1.4205,0.46782 -2.19237,4.15984 -1.33614,6.39112 0.96311,2.50982 2.58614,0.4523 2.58614,-3.27846 z m -549,3.79734 c 0,-0.46476 0.9,-1.6595 2,-2.65499 1.996365,-1.80669 2.714582,-4.5 1.2,-4.5 -0.44,0 -1.39625,0.5625 -2.125,1.25 -1.069325,1.0088 -1.237525,0.96056 -0.871672,-0.25 0.24933,-0.825 1.43058,-1.6438 2.625,-1.81955 C 20.55265,350.92672 21,351.36499 21,353.308 c 0,1.34591 -0.718627,3.04352 -1.59695,3.77246 -1.450056,1.20344 -1.427059,1.39221 0.25,2.05216 1.479114,0.58206 1.299263,0.74081 -0.90305,0.79709 -1.5125,0.0387 -2.75,-0.30997 -2.75,-0.77472 z m 48,0.25274 c 0,-0.32575 0.9,-1.73644 2,-3.13486 1.1,-1.39842 2,-2.9319 2,-3.40773 0,-1.33985 -2.770695,-1.02037 -3.337719,0.38486 -0.301317,0.74674 -0.536171,0.54544 -0.583334,-0.5 C 64.023862,351.52895 64.755639,351 66.5,351 c 3.159369,0 3.369585,2.90306 0.404523,5.58641 l -2.095477,1.89638 2.345477,0.65892 c 2.238316,0.62882 2.219834,0.66348 -0.404523,0.75861 -1.5125,0.0548 -2.75,-0.16684 -2.75,-0.49259 z M 79,356.5 c 0,-2.12517 -0.491012,-3.50602 -1.25,-3.51531 C 76.916667,352.97448 77,352.64625 78,352 c 2.562023,-1.65571 3,-1.14473 3,3.5 0,2.475 -0.45,4.5 -1,4.5 -0.55,0 -1,-1.575 -1,-3.5 z m 33.39216,1.25 c 0.89985,-1.2375 1.91033,-2.83191 2.24551,-3.54313 0.88739,-1.883 -0.57923,-2.91331 -1.67673,-1.17791 -0.78028,1.2338 -0.93278,1.18881 -0.94563,-0.27896 -0.01,-1.09737 0.74226,-1.75 2.01607,-1.75 3.03755,0 3.54152,2.76127 0.9981,5.46862 l -2.22354,2.36685 2.34703,0.44608 c 1.75051,0.33271 1.49001,0.4807 -1.02494,0.58227 -3.32081,0.13411 -3.34715,0.10204 -1.73587,-2.11382 z M 127,356.58333 c 0,-1.87916 -0.53975,-3.59658 -1.19944,-3.81648 -0.75023,-0.25007 -0.56297,-0.64404 0.5,-1.05194 1.44301,-0.55374 1.69944,0.0221 1.69944,3.81647 0,2.45774 -0.225,4.46862 -0.5,4.46862 -0.275,0 -0.5,-1.5375 -0.5,-3.41667 z m 5.83056,-0.56288 c -0.2479,-2.59948 0.0625,-4.14916 0.89496,-4.46862 0.91546,-0.35129 1.27448,0.76974 1.27448,3.97955 0,5.53907 -1.65232,5.91155 -2.16944,0.48907 z m 27.5616,1.72955 c 3.35014,-4.60719 3.33161,-7.41813 -0.0306,-4.6425 -1.45537,1.20146 -1.61881,1.18671 -1.1913,-0.1075 0.62209,-1.88327 3.68848,-2.54128 5.12911,-1.10065 0.78256,0.78256 0.47827,1.91016 -1.08663,4.0268 l -2.17355,2.93988 2.23042,0.4308 c 1.52745,0.29503 1.16767,0.47373 -1.14156,0.56699 -3.32081,0.13411 -3.34715,0.10204 -1.73587,-2.11382 z M 175,357.2 c 0,-1.54 -0.48025,-3.28025 -1.06722,-3.86722 -0.75629,-0.75629 -0.61062,-1.24243 0.5,-1.66861 1.27887,-0.49075 1.56722,0.22077 1.56722,3.86721 0,2.45774 -0.225,4.46862 -0.5,4.46862 -0.275,0 -0.5,-1.26 -0.5,-2.8 z m 4,1.95499 c 0,-0.46476 0.9,-1.6595 2,-2.65499 1.99636,-1.80669 2.71458,-4.5 1.2,-4.5 -0.44,0 -1.39625,0.5625 -2.125,1.25 -1.06933,1.0088 -1.23752,0.96056 -0.87167,-0.25 0.24933,-0.825 1.43058,-1.6438 2.625,-1.81955 1.72432,-0.25373 2.17167,0.18454 2.17167,2.12755 0,1.34591 -0.71863,3.04352 -1.59695,3.77246 -1.45006,1.20344 -1.42706,1.39221 0.25,2.05216 1.47911,0.58206 1.29926,0.74081 -0.90305,0.79709 -1.5125,0.0387 -2.75,-0.30997 -2.75,-0.77472 z m 28,0 c 0,-0.46476 0.9,-1.6595 2,-2.65499 1.99636,-1.80669 2.71458,-4.5 1.2,-4.5 -0.44,0 -1.39625,0.5625 -2.125,1.25 -1.06933,1.0088 -1.23752,0.96056 -0.87167,-0.25 0.24933,-0.825 1.43058,-1.6438 2.625,-1.81955 1.72432,-0.25373 2.17167,0.18454 2.17167,2.12755 0,1.34591 -0.71863,3.04352 -1.59695,3.77246 -1.45006,1.20344 -1.42706,1.39221 0.25,2.05216 1.47911,0.58206 1.29926,0.74081 -0.90305,0.79709 -1.5125,0.0387 -2.75,-0.30997 -2.75,-0.77472 z M 222,356.5 c 0,-1.925 -0.1125,-3.8 -0.25,-4.16667 -0.1375,-0.36666 0.3125,-0.85416 1,-1.08333 0.87879,-0.29293 1.25,0.94444 1.25,4.16667 0,2.52083 -0.45,4.58333 -1,4.58333 -0.55,0 -1,-1.575 -1,-3.5 z m 33,2.90773 c 0,-0.32575 0.91291,-1.75284 2.02868,-3.17132 1.44131,-1.83233 1.71879,-2.88894 0.95836,-3.64937 -0.76043,-0.76043 -1.34336,-0.63844 -2.01337,0.42132 -0.80021,1.26571 -0.94536,1.22658 -0.95836,-0.25836 -0.01,-1.09737 0.74226,-1.75 2.01607,-1.75 3.03755,0 3.54152,2.76127 0.9981,5.46862 l -2.22354,2.36685 2.34703,0.44608 c 2.13246,0.4053 2.09562,0.45854 -0.40297,0.58227 -1.5125,0.0749 -2.75,-0.13034 -2.75,-0.45609 z m 15,-2.8244 c 0,-1.87916 -0.53975,-3.59658 -1.19944,-3.81648 -0.75023,-0.25007 -0.56297,-0.64404 0.5,-1.05194 1.44301,-0.55374 1.69944,0.0221 1.69944,3.81647 0,2.45774 -0.225,4.46862 -0.5,4.46862 -0.275,0 -0.5,-1.5375 -0.5,-3.41667 z m 8.01531,2.66667 c -0.008,-0.6875 -0.95281,-1.25 -2.09864,-1.25 -1.14584,0 -1.9189,-0.3375 -1.71792,-0.75 2.32798,-4.778 3.23528,-6.25 3.85236,-6.25 1.06073,0 1.69076,6.80575 0.76496,8.26336 -0.62128,0.97817 -0.78864,0.97538 -0.80076,-0.0134 z M 278,355.44098 c 0,-0.85746 -0.45,-1.2809 -1,-0.94098 -0.55,0.33992 -1,1.04148 -1,1.55902 0,0.51754 0.45,0.94098 1,0.94098 0.55,0 1,-0.70156 1,-1.55902 z m 25.39216,2.30902 c 0.89985,-1.2375 1.91033,-2.83191 2.24551,-3.54313 0.88739,-1.883 -0.57923,-2.91331 -1.67673,-1.17791 -0.78028,1.2338 -0.93278,1.18881 -0.94563,-0.27896 -0.01,-1.09737 0.74226,-1.75 2.01607,-1.75 3.03755,0 3.54152,2.76127 0.9981,5.46862 l -2.22354,2.36685 2.34703,0.44608 c 1.75051,0.33271 1.49001,0.4807 -1.02494,0.58227 -3.32081,0.13411 -3.34715,0.10204 -1.73587,-2.11382 z M 318,356.58333 c 0,-1.87916 -0.53975,-3.59658 -1.19944,-3.81648 -0.75023,-0.25007 -0.56297,-0.64404 0.5,-1.05194 1.44301,-0.55374 1.69944,0.0221 1.69944,3.81647 0,2.45774 -0.225,4.46862 -0.5,4.46862 -0.275,0 -0.5,-1.5375 -0.5,-3.41667 z m 32,2.57166 c 0,-0.46476 0.9,-1.6595 2,-2.65499 1.99636,-1.80669 2.71458,-4.5 1.2,-4.5 -0.44,0 -1.39625,0.5625 -2.125,1.25 -1.06933,1.0088 -1.23752,0.96056 -0.87167,-0.25 0.61092,-2.02146 4.39914,-2.47832 5.11352,-0.6167 0.31427,0.81898 -0.31075,2.61052 -1.38893,3.9812 l -1.96032,2.49215 2.2662,0.43549 c 1.65846,0.31871 1.39463,0.47202 -0.9838,0.57168 -1.7875,0.0749 -3.25,-0.24408 -3.25,-0.70883 z M 366,357.2 c 0,-1.54 -0.48025,-3.28025 -1.06722,-3.86722 -0.75629,-0.75629 -0.61062,-1.24243 0.5,-1.66861 1.27887,-0.49075 1.56722,0.22077 1.56722,3.86721 0,2.45774 -0.225,4.46862 -0.5,4.46862 -0.275,0 -0.5,-1.26 -0.5,-2.8 z m 32,1.95499 c 0,-0.46476 0.9,-1.6595 2,-2.65499 1.99636,-1.80669 2.71458,-4.5 1.2,-4.5 -0.44,0 -1.39625,0.5625 -2.125,1.25 -1.06933,1.0088 -1.23752,0.96056 -0.87167,-0.25 0.24933,-0.825 1.43058,-1.6438 2.625,-1.81955 1.72432,-0.25373 2.17167,0.18454 2.17167,2.12755 0,1.34591 -0.71863,3.04352 -1.59695,3.77246 -1.45006,1.20344 -1.42706,1.39221 0.25,2.05216 1.47911,0.58206 1.29926,0.74081 -0.90305,0.79709 -1.5125,0.0387 -2.75,-0.30997 -2.75,-0.77472 z M 413,356.5 c 0,-1.925 -0.1125,-3.8 -0.25,-4.16667 -0.1375,-0.36666 0.3125,-0.85416 1,-1.08333 0.87879,-0.29293 1.25,0.94444 1.25,4.16667 0,2.52083 -0.45,4.58333 -1,4.58333 -0.55,0 -1,-1.575 -1,-3.5 z m 6.30559,1.5 c 0.24047,-1.375 0.75313,-3.24814 1.13924,-4.16254 0.48292,-1.14365 0.13293,-1.80968 -1.1214,-2.13399 -1.21079,-0.31306 -0.89947,-0.51044 0.92657,-0.58747 1.5125,-0.0638 2.75,0.0599 2.75,0.2748 0,0.21493 -0.92962,2.35243 -2.06581,4.75 -1.28035,2.70174 -1.89958,3.40865 -1.6286,1.8592 z M 446,359.40773 c 0,-0.32575 0.91291,-1.75284 2.02868,-3.17132 1.44131,-1.83233 1.71879,-2.88894 0.95836,-3.64937 -0.76043,-0.76043 -1.34336,-0.63844 -2.01337,0.42132 -0.80021,1.26571 -0.94536,1.22658 -0.95836,-0.25836 -0.01,-1.09737 0.74226,-1.75 2.01607,-1.75 3.03755,0 3.54152,2.76127 0.9981,5.46862 l -2.22354,2.36685 2.34703,0.44608 c 2.13246,0.4053 2.09562,0.45854 -0.40297,0.58227 -1.5125,0.0749 -2.75,-0.13034 -2.75,-0.45609 z m 15,-2.8244 c 0,-1.87916 -0.53975,-3.59658 -1.19944,-3.81648 -0.75023,-0.25007 -0.56297,-0.64404 0.5,-1.05194 1.44301,-0.55374 1.69944,0.0221 1.69944,3.81647 0,2.45774 -0.225,4.46862 -0.5,4.46862 -0.275,0 -0.5,-1.5375 -0.5,-3.41667 z m 33.39216,1.16667 c 0.89985,-1.2375 1.91033,-2.83191 2.24551,-3.54313 C 497.51349,352.34843 496.06323,351.27966 495,353 c -0.49019,0.79314 -1.18578,1.14755 -1.54576,0.78757 C 492.37117,352.7045 493.98309,351 496.0904,351 c 2.98501,0 3.46278,2.78226 0.93908,5.46862 l -2.22354,2.36685 2.34703,0.44608 c 1.75051,0.33271 1.49001,0.4807 -1.02494,0.58227 -3.32081,0.13411 -3.34715,0.10204 -1.73587,-2.11382 z M 509,356.58333 c 0,-1.87916 -0.53975,-3.59658 -1.19944,-3.81648 -0.75023,-0.25007 -0.56297,-0.64404 0.5,-1.05194 1.44301,-0.55374 1.69944,0.0221 1.69944,3.81647 0,2.45774 -0.225,4.46862 -0.5,4.46862 -0.275,0 -0.5,-1.5375 -0.5,-3.41667 z m 32,2.57166 c 0,-0.46476 0.9,-1.6595 2,-2.65499 1.99636,-1.80669 2.71458,-4.5 1.2,-4.5 -0.44,0 -1.39625,0.5625 -2.125,1.25 -1.06933,1.0088 -1.23752,0.96056 -0.87167,-0.25 0.61092,-2.02146 4.39914,-2.47832 5.11352,-0.6167 0.31427,0.81898 -0.30928,2.60866 -1.38567,3.97706 -1.83393,2.33146 -1.84614,2.51694 -0.19412,2.94782 1.10018,0.28696 0.72911,0.50343 -0.98706,0.57582 -1.5125,0.0638 -2.75,-0.26426 -2.75,-0.72901 z M 555.39216,357.75 c 0.89985,-1.2375 1.91033,-2.83191 2.24551,-3.54313 C 558.51349,352.34843 557.06323,351.27966 556,353 c -0.49019,0.79314 -1.18578,1.14755 -1.54576,0.78757 C 553.37117,352.7045 554.98309,351 557.0904,351 c 2.98501,0 3.46278,2.78226 0.93908,5.46862 l -2.22354,2.36685 2.34703,0.44608 c 1.75051,0.33271 1.49001,0.4807 -1.02494,0.58227 -3.32081,0.13411 -3.34715,0.10204 -1.73587,-2.11382 z M 45.329154,343.07424 C 32.30798,342.50653 29.166553,341.77118 32.02896,339.96094 32.926325,339.39343 135.18707,339.02465 294.25,339.01531 L 555,339 555,173.44098 C 555,63.322949 555.33487,8.088928 556,8.5 c 1.61025,0.995186 1.36136,333.45122 -0.25,333.94863 -2.07183,0.63955 -496.209852,1.2452 -510.420846,0.62561 z M 31,332.5861 c 0,-0.22764 2.876307,-2.70264 6.391793,-5.5 6.049403,-4.81365 6.705599,-5.0856 12.25,-5.07669 6.93843,0.0111 36.523059,-2.43726 54.858207,-4.54002 7.15,-0.81999 15.925,-1.72166 19.5,-2.00371 3.575,-0.28205 10.1,-1.15642 14.5,-1.94305 15.87547,-2.8382 27.06597,-4.73344 30.47569,-5.1614 3.10188,-0.38933 7.56406,-1.36926 32.02431,-7.03284 3.575,-0.82777 8.46173,-1.91089 10.85939,-2.40694 6.24163,-1.29133 16.7011,-4.459 31.64061,-9.58243 7.15,-2.45205 13.675,-4.61323 14.5,-4.80263 1.85741,-0.42641 14.77654,-5.21752 17.5,-6.48995 1.1,-0.51393 9.98348,-4.32861 19.74107,-8.47707 9.75759,-4.14845 24.38259,-11.21336 32.5,-15.69978 8.11741,-4.48642 17.23393,-9.50314 20.25893,-11.14826 3.025,-1.64512 6.57319,-3.83042 7.88486,-4.85623 1.31167,-1.0258 2.88667,-1.86565 3.5,-1.86632 0.61333,-6.7e-4 2.46514,-1.1065 4.11514,-2.45739 5.57464,-4.56408 10.0476,-7.88228 19,-14.09485 3.85,-2.67173 7.86106,-5.65466 8.91346,-6.62873 1.0524,-0.97407 4.8774,-3.77295 8.5,-6.21973 7.83077,-5.28908 50.40353,-48.14332 57.25409,-57.63264 2.56715,-3.55599 6.39215,-8.76538 8.5,-11.57641 2.10785,-2.81104 4.50745,-6.10731 5.33245,-7.32504 2.20281,-3.25145 4.18169,-5.89099 7.0641,-9.42248 1.41025,-1.72783 5.19625,-6.96651 8.41334,-11.64151 3.21708,-4.675 6.63181,-9.4 7.58829,-10.5 1.72727,-1.98646 2.74446,-3.798712 12.90952,-23 C 509.88693,70 515.74806,58.975 520,51 c 4.25194,-7.975 10.10082,-19 12.99752,-24.5 2.8967,-5.5 5.99477,-11.287778 6.88461,-12.861729 1.44079,-2.548508 12.77537,-9.314103 13.83273,-8.256742 0.20606,0.206055 -4.8754,10.217007 -11.29212,22.246558 -35.20657,66.002414 -34.85138,65.365919 -41.50438,74.375733 -1.41991,1.9229 -7.07219,9.57118 -12.56063,16.99618 -5.48844,7.425 -13.94849,18.9 -18.80012,25.5 -6.42226,8.73665 -15.63746,18.85829 -33.88612,37.21928 -13.78573,13.87061 -27.56394,26.91852 -30.61823,28.99537 -3.05429,2.07685 -6.00326,4.29077 -6.55326,4.91983 -0.55,0.62907 -4.6,3.5966 -9,6.59452 -4.4,2.99793 -11.15,7.81793 -15,10.71112 -7.16792,5.38653 -22.99693,15.04489 -39,23.79657 -4.95,2.70703 -10.8,5.97221 -13,7.25595 -5.62903,3.28465 -7.7484,4.31766 -18.5,9.01716 -5.225,2.28384 -10.85,4.76497 -12.5,5.51363 -34.9882,15.87522 -91.36907,32.97882 -132,40.04328 -14.80155,2.57354 -15.44474,2.6858 -28,4.88745 -4.4,0.77156 -10.925,1.6886 -14.5,2.03786 -3.575,0.34927 -11.71425,1.28673 -18.087218,2.08327 C 87.763665,328.96877 39.408466,332.99244 33.75,332.99753 32.2375,332.99889 31,332.81375 31,332.5861 z M 579.63837,263.5 c -0.31658,-0.825 -0.13972,-1.5 0.39301,-1.5 0.53274,0 0.96862,0.675 0.96862,1.5 0,0.825 -0.17686,1.5 -0.39301,1.5 -0.21616,0 -0.65203,-0.675 -0.96862,-1.5 z M 567,260.05902 C 567,257.72448 566.52313,256 565.87756,256 c -0.76025,0 -0.70806,-0.49931 0.16172,-1.54733 1.02571,-1.2359 1.44982,-1.28622 2.10714,-0.25 1.16019,1.82896 1.05427,8.55527 -0.14642,9.29733 -0.60393,0.37325 -1,-0.98962 -1,-3.44098 z m 5.66667,3.27431 c -1.3806,-1.3806 -0.702,-9.38254 0.84606,-9.97659 3.36918,-1.29288 5.73424,4.23014 3.88028,9.06147 -0.61163,1.5939 -3.49021,2.15125 -4.72634,0.91512 z M 575.8075,258.75 c -0.34635,-4.787 -2.13581,-5.74936 -2.63207,-1.41553 -0.38794,3.38786 0.35607,5.66553 1.85068,5.66553 0.66261,0 0.96851,-1.66379 0.78139,-4.25 z m 7.85917,4.58333 c -1.3806,-1.3806 -0.702,-9.38254 0.84606,-9.97659 2.32887,-0.89367 4.48727,1.54296 4.48727,5.0657 0,4.28265 -3.10371,7.14052 -5.33333,4.91089 z m 3.15617,-5.45617 C 586.64528,256.01972 586.05,254.5 585.5,254.5 c -1.18844,0 -1.9065,4.99829 -1.04179,7.25169 1.0197,2.65729 2.72235,-0.13256 2.36463,-3.87453 z m 3.60605,4.79814 c -0.30919,-0.80574 -0.41967,-3.1998 -0.24552,-5.32014 C 590.45942,253.99409 590.82041,253.5 593,253.5 c 2.33333,0 2.5,0.33333 2.5,5 0,4.42679 -0.25846,5.0367 -2.25447,5.32014 -1.29637,0.18408 -2.49338,-0.30245 -2.81664,-1.14484 z m 4.14235,-2.10313 C 595.2515,257.86182 594.32951,254 593.00216,254 c -1.0511,0 -1.68062,3.68036 -1.15458,6.75 0.50797,2.96425 1.95882,2.86953 2.72366,-0.17783 z M 598.2,262.8 c -1.68131,-1.68131 -1.4974,-7.30829 0.28727,-8.78943 3.33633,-2.76891 6.46713,2.34896 4.53912,7.42003 -1.0518,2.76642 -2.90388,3.29191 -4.82639,1.3694 z m 3.62284,-4.92284 C 601.64528,256.01972 601.05,254.5 600.5,254.5 c -1.18844,0 -1.9065,4.99829 -1.04179,7.25169 1.0197,2.65729 2.72235,-0.13256 2.36463,-3.87453 z M 292.09783,180.85078 c -1.42784,-4.0959 -1.32807,-6.6685 0.40141,-10.35078 1.37058,-2.91815 1.39336,-2.85852 0.83461,2.18557 -0.31593,2.85207 -0.0937,6.56457 0.49385,8.25 0.58754,1.68544 0.68569,3.06443 0.21811,3.06443 -0.46759,0 -1.34418,-1.41715 -1.94798,-3.14922 z m 36.80359,1.76801 c 1.07478,-1.29504 1.10881,-2.52107 0.17314,-6.23698 -1.38595,-5.50411 -0.58921,-7.15567 1.10665,-2.29397 l 1.19023,3.41216 0.84287,-3.25 c 0.47001,-1.81227 1.49379,-3.25 2.31428,-3.25 0.80928,0 1.47141,-0.675 1.47141,-1.5 0,-2.10922 1.96845,-1.87984 2.14537,0.25 0.0799,0.9625 0.0423,3.23359 -0.0836,5.04686 -0.12591,1.81328 0.35685,4.00268 1.0728,4.86534 1.11454,1.34295 1.01872,1.51466 -0.66645,1.1942 -1.5002,-0.28529 -2.10115,-1.44213 -2.52745,-4.86534 -0.60345,-4.84576 -1.11473,-4.37091 -3.23389,3.00341 -0.87092,3.03064 -1.91879,4.61525 -3.21737,4.86533 -1.66733,0.3211 -1.74625,0.15454 -0.58804,-1.24101 z M 356.5,175.86528 c 0,-7.13588 0.13058,-7.69773 1.2049,-5.18426 1.54827,3.62236 1.55232,8.22894 0.01,11.00324 -1.03352,1.85868 -1.21456,0.99134 -1.21456,-5.81898 z m 223.15066,5.66675 c -0.30982,-0.80739 -0.13297,-1.73395 0.39301,-2.05902 0.52598,-0.32508 0.95633,0.33551 0.95633,1.46797 0,2.41457 -0.55611,2.65816 -1.34934,0.59105 z M 296,174.5 l 0,-6.5 3.55902,0 c 2.11803,0 3.30878,0.40488 2.94098,1 -0.33992,0.55 -1.49148,1 -2.55902,1 -1.06754,0 -1.94098,0.675 -1.94098,1.5 0,0.825 0.87344,1.5 1.94098,1.5 1.06754,0 2.2191,0.45 2.55902,1 0.35052,0.56716 -0.48962,1 -1.94098,1 -1.89235,0 -2.55902,0.52103 -2.55902,2 0,1.46667 0.66667,2 2.5,2 1.375,0 2.5,0.45 2.5,1 0,0.55 -1.575,1 -3.5,1 l -3.5,0 0,-6.5 z m 8,5.93426 c 0,-0.31116 0.46583,-1.43616 1.03518,-2.5 0.72483,-1.35435 0.70054,-2.55956 -0.081,-4.01991 -1.37455,-2.56837 -0.20118,-4.10714 1.20958,-1.58625 0.97799,1.74758 1.06287,1.74729 2.40734,-0.008 1.2613,-1.64702 1.33826,-1.52284 0.81069,1.30806 -0.32059,1.72031 -0.0718,4.08281 0.55285,5.25 1.38045,2.57941 -0.37659,2.93916 -1.81768,0.37217 -0.93566,-1.66667 -1.01455,-1.66667 -1.65668,0 C 305.84015,180.8595 304,181.74527 304,180.43426 z m 7.35674,-0.94699 C 310.67475,177.71002 312.64702,175 314.62244,175 315.3801,175 316,174.325 316,173.5 c 0,-1.80819 -1.16679,-1.93321 -2.8,-0.3 -0.93333,0.93333 -1.2,0.80746 -1.2,-0.56642 0,-1.33705 0.66846,-1.68951 2.75,-1.45 2.47727,0.28504 2.80415,0.7875 3.29597,5.06642 l 0.54597,4.75 -3.32736,0 c -2.0476,0 -3.55061,-0.58182 -3.90784,-1.51273 z m 4.50576,-2.36772 c -0.2177,-0.63386 -0.91298,-0.71347 -1.74062,-0.19931 -0.75796,0.47089 -1.04467,1.39567 -0.63713,2.05509 0.87628,1.41785 2.94702,-0.19831 2.37775,-1.85578 z M 320,174.5 c 0,-3.66667 0.4359,-6.5 1,-6.5 0.55,0 1,0.675 1,1.5 0,0.82852 0.88677,1.5 1.98095,1.5 2.29941,0 3.57224,3.65978 2.60841,7.5 -0.49375,1.96723 -1.26272,2.5 -3.60841,2.5 L 320,181 l 0,-6.5 z m 4.82818,0.87182 C 324.64768,173.79232 324.05,172.5 323.5,172.5 c -1.21473,0 -1.89165,4.037 -1.0463,6.23994 0.96441,2.51322 2.75614,-0.0283 2.37448,-3.36812 z m 16.207,3.69392 c -1.45741,-2.7232 -1.286,-5.61269 0.41678,-7.02587 2.13313,-1.77034 5.0007,-0.85126 5.36759,1.72035 0.25988,1.82151 -0.16031,2.23978 -2.25,2.23978 -1.5706,0 -2.56955,0.5602 -2.56955,1.44098 0,2.0657 2.07262,3.05956 3.05743,1.4661 0.4586,-0.74204 1.12835,-1.05463 1.48833,-0.69465 1.06825,1.06825 -0.51662,2.78757 -2.56959,2.78757 -1.04819,0 -2.37164,-0.87042 -2.94099,-1.93426 z M 345,174.05902 c 0,-1.35726 -1.76453,-2.24903 -2.40372,-1.21481 C 341.99863,173.81123 342.86459,175 344.16667,175 344.625,175 345,174.57656 345,174.05902 z m 3.45888,5.87445 c -1.01796,-1.6471 0.32129,-2.3608 1.92793,-1.02741 1.11376,0.92434 1.60668,0.91348 2.20121,-0.0485 0.42135,-0.68175 0.30022,-1.39483 -0.26916,-1.58463 -2.70445,-0.90148 -4.38647,-2.93319 -3.7663,-4.54933 0.81308,-2.11885 5.01966,-2.28078 5.80907,-0.22362 0.64286,1.67528 -0.89039,2.07151 -1.87171,0.48369 -0.34546,-0.55897 -1.0958,-0.72727 -1.66741,-0.374 -0.60649,0.37483 0.11706,1.56437 1.73745,2.85642 1.85289,1.47744 2.56481,2.76636 2.13977,3.87399 -0.70798,1.84497 -5.20317,2.27236 -6.24085,0.59337 z m 216.45134,-0.76571 c 0.53932,-1.00774 1.68016,-2.41284 2.53518,-3.12245 0.85503,-0.70961 1.5546,-1.9101 1.5546,-2.66775 0,-1.71987 -2.67394,-1.82386 -3.27976,-0.12756 -0.24554,0.6875 -0.79716,0.92337 -1.22584,0.52417 -0.9996,-0.93091 1.3304,-3.77417 3.09286,-3.77417 0.73831,0 1.80659,0.8674 2.37396,1.92754 0.82078,1.53364 0.51584,2.54049 -1.49217,4.92687 l -2.52376,2.99932 2.27736,0.43695 c 1.66143,0.31878 1.38886,0.47379 -1.00783,0.57314 -2.89157,0.11986 -3.1677,-0.0833 -2.3046,-1.69606 z m 7.75645,1.16557 C 572.3,179.96667 572,177.76481 572,175.44032 c 0,-4.54482 2.05454,-6.46987 4.62675,-4.33513 1.42252,1.18059 1.82552,5.55264 0.76626,8.31302 -0.61163,1.5939 -3.49021,2.15125 -4.72634,0.91512 z M 576,175.91667 c 0,-2.81956 -0.38687,-3.95593 -1.25,-3.67168 C 572.38702,173.02319 572.5837,180 574.96862,180 575.53588,180 576,178.1625 576,175.91667 z m 7.70885,4.45885 C 583.31898,179.98565 583,177.76481 583,175.44032 c 0,-2.98061 0.47949,-4.41034 1.62675,-4.85058 2.76347,-1.06045 4.49972,1.36277 4.17276,5.82379 -0.23679,3.23074 -0.72694,4.14765 -2.34066,4.37865 -1.12263,0.1607 -2.36013,-0.0268 -2.75,-0.41666 z M 587,175.91667 c 0,-2.81956 -0.38687,-3.95593 -1.25,-3.67168 C 583.38702,173.02319 583.5837,180 585.96862,180 586.53588,180 587,178.1625 587,175.91667 z m 3.70885,4.45885 C 589.40132,179.06799 589.97536,172.26534 591.5,171 c 2.53021,-2.09989 4.65418,0.57441 4.29951,5.41353 -0.23679,3.23074 -0.72694,4.14765 -2.34066,4.37865 -1.12263,0.1607 -2.36013,-0.0268 -2.75,-0.41666 z m 3.87994,-2.87328 c 0.69322,-2.762 -0.0244,-5.50224 -1.44083,-5.50224 -0.50314,0 -1.09715,1.0125 -1.32001,2.25 -0.92503,5.13652 1.55476,8.05767 2.76084,3.25224 z m 3.0182,1.91597 c -1.69796,-4.4248 0.56143,-10.05828 3.57085,-8.90346 2.01816,0.77444 2.89176,3.88727 2.14242,7.63394 -0.42586,2.12933 -1.14454,2.85131 -2.83827,2.85131 -1.24741,0 -2.54116,-0.7118 -2.875,-1.58179 z m 4.20338,-3.74551 C 602.04645,172.87899 601.74729,172 600.56037,172 599.4013,172 599,173.05016 599,176.08333 c 0,5.21025 2.36456,4.86476 2.81037,-0.41063 z M 579.63837,98.5 C 579.32179,97.675 579.49865,97 580.03138,97 580.56412,97 581,97.675 581,98.5 c 0,0.825 -0.17686,1.5 -0.39301,1.5 -0.21616,0 -0.65203,-0.675 -0.96862,-1.5 z m -14.69056,-1.062882 c -1.13653,-1.369435 -0.96602,-1.479793 1.37756,-0.891592 2.02377,0.507935 2.67463,0.300171 2.67463,-0.853785 0,-0.838791 -0.5625,-1.714395 -1.25,-1.945786 -0.98932,-0.332975 -0.97919,-0.748878 0.0486,-1.994306 0.96877,-1.173958 1.00387,-1.755722 0.13819,-2.290737 -0.63819,-0.394428 -1.55315,-0.09699 -2.03324,0.660973 -0.69036,1.089938 -0.87609,1.012173 -0.8882,-0.371885 -0.0107,-1.224693 0.77012,-1.75 2.60127,-1.75 2.23327,0 2.54838,0.356761 2.15103,2.435354 -0.25605,1.339445 -0.11491,3.002698 0.31364,3.696118 C 571.0601,95.715274 569.37744,99 567.58726,99 c -0.7383,0 -1.92606,-0.703297 -2.63945,-1.562882 z m 8.23732,0.69846 c -0.84925,-0.538532 -1.20337,-2.389187 -1,-5.22606 0.24087,-3.36007 0.75672,-4.476165 2.19504,-4.749284 1.0341,-0.196361 2.26471,0.249757 2.73469,0.991373 1.25922,1.987003 1.06701,7.266524 -0.31486,8.648393 -1.4094,1.409398 -1.8561,1.450866 -3.61487,0.335578 z M 576,92.916667 c 0,-2.819553 -0.38687,-3.955926 -1.25,-3.671672 C 572.38702,90.023193 572.5837,97 574.96862,97 575.53588,97 576,95.1625 576,92.916667 z m 8.18513,5.218911 c -0.84925,-0.538532 -1.20337,-2.389187 -1,-5.22606 0.24087,-3.36007 0.75672,-4.476165 2.19504,-4.749284 1.0341,-0.196361 2.26471,0.249757 2.73469,0.991373 1.25922,1.987003 1.06701,7.266524 -0.31486,8.648393 -1.4094,1.409398 -1.8561,1.450866 -3.61487,0.335578 z M 587,92.916667 c 0,-2.819553 -0.38687,-3.955926 -1.25,-3.671672 C 583.38702,90.023193 583.5837,97 585.96862,97 586.53588,97 587,95.1625 587,92.916667 z m 4.05792,4.653121 c -0.65283,-0.786617 -1.04543,-3.149117 -0.87245,-5.25 C 590.45917,88.995888 590.82455,88.5 593,88.5 c 2.17545,0 2.54083,0.495888 2.81453,3.819788 C 596.10603,95.860031 594.78309,99 593,99 c -0.41531,0 -1.28925,-0.643595 -1.94208,-1.430212 z m 3.58131,-2.072024 C 595.35966,93.620347 594.26122,89 593.09445,89 c -0.96008,0 -1.92344,5.01304 -1.31444,6.840019 0.5454,1.636203 2.17486,1.441152 2.85922,-0.342255 z m 3.42824,1.628308 C 595.93353,93.138768 597.09589,88 600.13174,88 c 1.1547,0 2.31887,1.055007 2.92585,2.651478 2.01606,5.302642 -2.48903,11.147922 -4.99012,6.474594 z m 3.7429,-3.798772 C 601.36456,88.051911 599,87.706416 599,92.916667 599,95.949839 599.4013,97 600.56037,97 c 1.18692,0 1.48608,-0.878992 1.25,-3.6727 z M 579.63837,15.5 C 579.32179,14.675 579.49865,14 580.03138,14 580.56412,14 581,14.675 581,15.5 c 0,0.825 -0.17686,1.5 -0.39301,1.5 -0.21616,0 -0.65203,-0.675 -0.96862,-1.5 z M 568,14.7 c 0,-1.033333 -0.78431,-1.7 -2,-1.7 -2.40311,0 -2.52426,-0.961944 -0.44822,-3.55887 1.5081,-1.886491 1.53435,-1.877797 0.93261,0.30887 -0.37765,1.372344 -0.17786,2.25 0.51219,2.25 0.64366,0 0.99601,-1.185461 0.81739,-2.75 C 567.64129,7.7375 567.95,6.275 568.5,6 c 1.37455,-0.687273 1.89952,8.00048 0.56414,9.335864 C 568.31195,16.088045 568,15.90164 568,14.7 z m 4.40198,-0.09484 c -0.29439,-0.767161 -0.39276,-3.125918 -0.21861,-5.241683 0.23241,-2.823701 0.8167,-3.941719 2.1968,-4.203555 2.33801,-0.443571 3.58459,1.420516 3.60452,5.390077 0.0228,4.551205 -4.21196,7.62728 -5.58271,4.055161 z m 3.42086,-4.728003 C 575.64528,8.019721 575.05,6.5 574.5,6.5 c -1.18844,0 -1.9065,4.998292 -1.04179,7.25169 1.0197,2.657292 2.72235,-0.13256 2.36463,-3.874532 z m 7.63618,5.05653 c -1.0712,-1.733226 -0.75212,-8.040589 0.4685,-9.261212 3.02977,-3.029766 6.86638,5.461075 4.01827,8.892848 -1.40505,1.692977 -3.55883,1.869803 -4.48677,0.368364 z m 3.36382,-5.05653 C 586.64528,8.019721 586.05,6.5 585.5,6.5 c -1.18844,0 -1.9065,4.998292 -1.04179,7.25169 1.0197,2.657292 2.72235,-0.13256 2.36463,-3.874532 z m 3.63442,3.80859 C 590.11988,12.341499 589.99147,9.949785 590.17192,8.370829 590.43569,6.062766 590.99007,5.5 593,5.5 c 2.33333,0 2.5,0.333333 2.5,5 0,4.400076 -0.26573,5.037786 -2.21465,5.314919 -1.6473,0.234242 -2.37181,-0.311219 -2.82809,-2.129171 z m 4.11398,-1.113576 C 595.2515,9.861815 594.32951,6 593.00216,6 c -1.0511,0 -1.68062,3.680359 -1.15458,6.75 0.50797,2.964255 1.95882,2.869529 2.72366,-0.177828 z M 598.2,14.8 c -1.68131,-1.681309 -1.4974,-7.308289 0.28727,-8.789431 3.33633,-2.768912 6.46713,2.348963 4.53912,7.420033 C 601.97459,16.19702 600.12251,16.722514 598.2,14.8 z m 3.62284,-4.922842 C 601.64528,8.019721 601.05,6.5 600.5,6.5 c -1.18844,0 -1.9065,4.998292 -1.04179,7.25169 1.0197,2.657292 2.72235,-0.13256 2.36463,-3.874532 z"
     id="path3003"
     inkscape:connector-curvature="0" />
</svg>
